<svg xmlns="http://www.w3.org/2000/svg" viewBox="0 0 1440 320">
  <defs>
    <linearGradient id="gradient" x1="0%" y1="0%" x2="100%" y2="100%">
      <stop offset="0%" stop-color="#667eea"/>
      <stop offset="100%" stop-color="#764ba2"/>
    </linearGradient>
  </defs>
  <path fill="url(#gradient)" fill-opacity="0.1" d="M0,64L48,80C96,96,192,128,288,128C384,128,480,96,576,85.3C672,75,768,85,864,112C960,139,1056,181,1152,186.7C1248,192,1344,160,1392,144L1440,128L1440,0L1392,0C1344,0,1248,0,1152,0C1056,0,960,0,864,0C768,0,672,0,576,0C480,0,384,0,288,0C192,0,96,0,48,0L0,0Z"/>
</svg>